<?xml version="1.0" encoding="UTF-8" standalone="no"?>
<!-- Created with Inkscape (http://www.inkscape.org/) -->

<svg
   width="210mm"
   height="297mm"
   viewBox="0 0 210 297"
   version="1.1"
   id="svg1"
   inkscape:version="1.4.3 (0d15f75, 2025-12-25)"
   sodipodi:docname="rajz-1.svg"
   xmlns:inkscape="http://www.inkscape.org/namespaces/inkscape"
   xmlns:sodipodi="http://sodipodi.sourceforge.net/DTD/sodipodi-0.dtd"
   xmlns="http://www.w3.org/2000/svg"
   xmlns:svg="http://www.w3.org/2000/svg">
  <sodipodi:namedview
     id="namedview1"
     pagecolor="#ffffff"
     bordercolor="#000000"
     borderopacity="0.25"
     inkscape:showpageshadow="2"
     inkscape:pageopacity="0.0"
     inkscape:pagecheckerboard="0"
     inkscape:deskcolor="#d1d1d1"
     inkscape:document-units="mm"
     inkscape:zoom="0.92599442"
     inkscape:cx="415.76924"
     inkscape:cy="552.9191"
     inkscape:window-width="1428"
     inkscape:window-height="961"
     inkscape:window-x="750"
     inkscape:window-y="0"
     inkscape:window-maximized="0"
     inkscape:current-layer="layer1" />
  <defs
     id="defs1" />
  <g
     inkscape:label="Réteg 1"
     inkscape:groupmode="layer"
     id="layer1">
    <g
       id="path1"
       style="opacity:1"
       transform="translate(3.1430177,0.28572879)">
      <path
         style="baseline-shift:baseline;display:inline;overflow:visible;vector-effect:none;fill:#0000ff;fill-rule:evenodd;enable-background:accumulate;stop-color:#000000;stop-opacity:1"
         d="M 58.805682,69.67215 A 35.354546,34.546387 0 0 0 23.451251,104.21836 35.354546,34.546387 0 0 0 58.805682,138.76458 35.354546,34.546387 0 0 0 94.160117,104.21836 35.354546,34.546387 0 0 0 58.805682,69.67215 Z m 0.606165,5.643583 A 29.508522,28.833996 0 0 1 88.92064,104.15015 29.508522,28.833996 0 0 1 59.411847,132.98405 29.508522,28.833996 0 0 1 29.903571,104.15015 29.508522,28.833996 0 0 1 59.411847,75.315733 Z"
         id="path11" />
      <path
         style="baseline-shift:baseline;display:inline;overflow:visible;vector-effect:none;fill-rule:evenodd;enable-background:accumulate;stop-color:#000000;stop-opacity:1"
         d="m 58.806641,69.591797 c -19.567692,6.2e-5 -35.435447,15.503603 -35.435547,34.626953 9.4e-5,19.12335 15.867851,34.62494 35.435547,34.625 19.567697,-6e-5 35.433499,-15.50164 35.433593,-34.625 -1e-4,-19.123351 -15.8659,-34.626893 -35.433593,-34.626953 z m 0,0.160156 c 19.483632,6e-5 35.273337,15.431486 35.273437,34.466797 -9.4e-5,19.03532 -15.789801,34.46674 -35.273437,34.4668 -19.483635,-7e-5 -35.275297,-15.43149 -35.275391,-34.4668 10e-5,-19.03531 15.79176,-34.466735 35.275391,-34.466797 z m 0.605468,5.484375 C 43.0729,75.236461 29.82398,88.181724 29.824219,104.15039 c 5.4e-5,15.96847 13.248888,28.91393 29.58789,28.91406 C 75.751314,133.0646 88.999946,120.11905 89,104.15039 89.000239,88.181526 75.751521,75.236181 59.412109,75.236328 Z m 0,0.158203 c 16.25535,-1.46e-4 29.429925,12.875036 29.429688,28.755859 -5.4e-5,15.88062 -13.174544,28.75405 -29.429688,28.75391 C 43.157167,132.90416 29.982476,120.03082 29.982422,104.15039 29.982185,88.269764 43.156961,75.394664 59.412109,75.394531 Z"
         id="path12" />
    </g>
    <path
       id="path2"
       style="fill:#000000;fill-rule:evenodd;stroke:#000000;stroke-width:0.159181"
       d="m 110.11215,72.333345 a 35.354546,34.546387 0 0 0 -35.354426,34.546205 35.354546,34.546387 0 0 0 35.354426,34.54622 35.354546,34.546387 0 0 0 35.35444,-34.54622 35.354546,34.546387 0 0 0 -35.35444,-34.546205 z m 0.60617,5.643583 a 29.508522,28.833996 0 0 1 29.50879,28.834412 29.508522,28.833996 0 0 1 -29.50879,28.8339 29.508522,28.833996 0 0 1 -29.508276,-28.8339 29.508522,28.833996 0 0 1 29.508276,-28.834412 z" />
    <path
       id="path3"
       style="fill:#ff0000;fill-rule:evenodd;stroke:#000000;stroke-width:0.159181"
       d="m 137.46238,160.43139 a 29.508522,28.833996 0 0 1 6.5996,-1.49965 29.508522,28.833996 0 0 1 1.66346,-5.75779 35.354546,34.546387 0 0 0 -7.10861,0.83871 35.354546,34.546387 0 0 0 -1.15445,6.41873 z" />
    <path
       id="path15"
       style="fill:#ff0000;fill-rule:evenodd;stroke:#000000;stroke-width:0.159181"
       d="m 170.04711,205.14906 a 29.508522,28.833996 0 0 0 1.69189,-5.8291 29.508522,28.833996 0 0 1 -3.11351,0.16123 29.508522,28.833996 0 0 1 -29.50827,-28.8339 29.508522,28.833996 0 0 1 0.3731,-4.57233 29.508522,28.833996 0 0 0 -6.5996,1.49965 35.354546,34.546387 0 0 0 -0.22582,3.14089 35.354546,34.546387 0 0 0 35.35443,34.54621 35.354546,34.546387 0 0 0 2.02778,-0.11265 z" />
    <path
       id="path14"
       style="fill:#ff0000;fill-rule:evenodd;stroke:#000000;stroke-width:0.299505"
       d="m 51.999178,128.16731 a 62.839896,68.807976 1.9842581 0 0 -6.286753,10.47561 52.449053,57.430287 1.9842605 0 1 9.575631,2.00287 52.449053,57.430287 1.9842605 0 1 6.943634,-9.41922 62.839896,68.807976 1.9842581 0 0 -10.232512,-3.05926 z" />
    <path
       id="path13"
       style="fill:#ff0000;fill-rule:evenodd;stroke:#000000;stroke-width:0.159181"
       d="M 179.44848 127.88315 A 35.354546 34.546387 0 0 0 145.47432 152.86974 A 35.354546 34.546387 0 0 1 152.58293 152.03103 A 29.508522 28.833996 0 0 1 180.05464 133.52673 A 29.508522 28.833996 0 0 1 209.56344 162.36115 A 29.508522 28.833996 0 0 1 188.53785 189.91399 A 35.354546 34.546387 0 0 1 187.40045 196.09036 A 35.354546 34.546387 0 0 0 214.80291 162.42936 A 35.354546 34.546387 0 0 0 179.44848 127.88315 z " />
    <path
       style="fill:#ffff00;fill-rule:evenodd;stroke:#000000;stroke-width:0.159181"
       d="m 89.096425,137.93468 c -19.525657,6e-5 -35.354324,15.46687 -35.35443,34.5462 9.4e-5,19.07933 15.828765,34.54616 35.35443,34.54622 19.525675,-6e-5 35.354355,-15.46688 35.354445,-34.54622 -1.1e-4,-19.07933 -15.82878,-34.54614 -35.354445,-34.5462 z m 0.60617,5.64358 c 16.297385,-1.3e-4 29.509025,12.90957 29.508795,28.83441 -5e-5,15.92464 -13.21162,28.83405 -29.508795,28.8339 -16.296974,-1.3e-4 -29.508226,-12.90945 -29.50828,-28.8339 -6.4e-5,-4.37069 0.99508,-8.51425 2.776086,-12.22614 4.708111,-9.81242 14.907947,-16.60818 26.732194,-16.60827 z"
       id="path5"
       sodipodi:nodetypes="cccccscscss" />
    <path
       id="path16"
       style="fill:#ff0000;fill-rule:evenodd;stroke:#000000;stroke-width:0.299505"
       d="m 30.283784,150.16843 a 62.839896,68.807976 1.9842581 0 0 -6.286753,10.47561 52.449053,57.430287 1.9842605 0 1 9.575631,2.00287 52.449053,57.430287 1.9842605 0 1 6.943634,-9.41922 62.839896,68.807976 1.9842581 0 0 -10.232512,-3.05926 z" />
  </g>
</svg>
